Coordinates
version=1
nRows=17
nColumns=40
inDegrees=yes

Units are S.I. units (second, meters, Newtons, ...)
Angles are in degrees.

endheader
time	pelvis_tilt	pelvis_list	pelvis_rotation	pelvis_tx	pelvis_ty	pelvis_tz	hip_flexion_r	hip_adduction_r	hip_rotation_r	knee_angle_r	knee_angle_r_beta	ankle_angle_r	subtalar_angle_r	mtp_angle_r	hip_flexion_l	hip_adduction_l	hip_rotation_l	knee_angle_l	knee_angle_l_beta	ankle_angle_l	subtalar_angle_l	mtp_angle_l	lumbar_extension	lumbar_bending	lumbar_rotation	arm_flex_r	arm_add_r	arm_rot_r	elbow_flex_r	pro_sup_r	wrist_flex_r	wrist_dev_r	arm_flex_l	arm_add_l	arm_rot_l	elbow_flex_l	pro_sup_l	wrist_flex_l	wrist_dev_l
      0.00000000	     -8.99376199	     -3.94694098	     -6.34645870	     -1.64575889	      0.83106528	      0.21261885	     19.25966852	      8.11218311	     -5.18044577	    -50.47724093	     -0.88099405	     14.55549151	     -5.28328322	    -14.85937355	     28.91643785	      5.33449564	      1.37138216	    -82.19116518	     -1.43450645	      3.40744596	     12.30025756	    -16.01888598	     -5.29058856	      6.96089361	      5.62896204	     -6.11506175	    -22.72632465	      6.30886002	     90.59364645	     89.95437384	      0.00000000	      0.00000000	    -16.43897789	     17.30059559	    -11.67347975	     69.58576013	     89.95437384	      0.00000000	      0.00000000
      0.01000000	     -9.18557888	     -3.30239321	     -6.47445943	     -1.61660529	      0.83221330	      0.21383015	     16.69939594	      7.25768282	     -4.66705545	    -49.20630835	     -0.85881209	     14.09590777	     -4.71767613	    -14.50668703	     32.42390794	      4.84071829	      1.27424956	    -81.53618333	     -1.42307486	      4.13627094	     11.66792881	    -15.78143903	     -4.93082663	      6.14328180	      6.21374471	     -4.61916061	    -22.34076419	      6.33367003	     94.53326282	     89.95437384	      0.00000000	      0.00000000	    -19.60196816	     19.25821441	    -11.22556362	     71.14120458	     89.95437384	      0.00000000	      0.00000000
      0.02000000	     -9.44515580	     -2.59938848	     -6.54057727	     -1.58688806	      0.83446243	      0.21505979	     14.10125291	      6.25704303	     -4.39476586	    -47.52091331	     -0.82939640	     12.75812797	     -3.80880836	    -14.22283860	     35.62421201	      4.15980474	      1.12691495	    -79.93303373	     -1.39509462	      4.93614729	     10.48336401	    -16.02920898	     -4.46120940	      5.23727307	      6.72754417	     -3.25871113	    -21.79603705	      6.31687452	     98.42059697	     89.95437384	      0.00000000	      0.00000000	    -22.82749840	     21.05840198	    -10.55906987	     73.01683212	     89.95437384	      0.00000000	      0.00000000
      0.03000000	     -9.96267193	     -1.87299772	     -6.52143040	     -1.55638775	      0.83726913	      0.21620064	     11.76898015	      5.26242295	     -4.14507786	    -45.66959321	     -0.79708477	     11.09049392	     -3.34086896	    -13.80262911	     38.79046444	      3.39668492	      1.04871768	    -77.58073445	     -1.35403925	      5.05343063	      9.85859076	    -15.89475352	     -3.59083947	      4.36161784	      7.38863602	     -2.39973176	    -21.15792020	      5.93254195	    102.31386816	     89.95437384	      0.00000000	      0.00000000	    -25.87831594	     23.05355043	    -10.45136153	     74.91372298	     89.95437384	      0.00000000	      0.00000000
      0.04000000	     -9.74928296	     -1.21488084	     -6.23520616	     -1.52412384	      0.84218205	      0.21711095	      8.37402943	      4.10638353	     -4.44218654	    -43.18571203	     -0.75373286	      7.73190683	     -2.80032936	    -13.11994131	     40.36672425	      2.47225481	      0.87797016	    -74.08088790	     -1.29295541	      5.30570907	      8.48512461	    -16.42254931	     -3.40861775	      3.48558998	      8.04895125	     -1.93896785	    -20.45571094	      5.31252605	    106.17000680	     89.95437384	      0.00000000	      0.00000000	    -28.56259835	     25.18950146	    -10.80376781	     76.78046576	     89.95437384	      0.00000000	      0.00000000
      0.05000000	     -9.77543997	     -0.44754788	     -5.99303579	     -1.49132327	      0.84727202	      0.21801358	      5.33205651	      2.88744217	     -4.74502594	    -40.63716687	     -0.70925236	      3.77274147	     -2.20069043	    -12.15223018	     41.85634074	      1.47058530	      0.97165519	    -69.95842263	     -1.22100481	      4.88306541	      7.95743445	    -16.54271840	     -2.87659124	      2.49508568	      8.68991465	     -1.67860070	    -19.77946990	      4.85854731	    109.72790221	     89.95437384	      0.00000000	      0.00000000	    -31.31384389	     27.24209027	    -11.04645142	     78.77211871	     89.95437384	      0.00000000	      0.00000000
      0.06000000	     -9.72688094	      0.32175059	     -5.69849831	     -1.45777190	      0.85293477	      0.21884123	      2.23101366	      1.61991189	     -5.25556176	    -37.87880630	     -0.66110989	     -0.92360568	     -1.59639596	    -10.83925288	     42.68224702	      0.40998435	      1.18184594	    -65.08573656	     -1.13596040	      4.33775722	      7.82816495	    -16.29827110	     -2.36431552	      1.48754847	      9.17991247	     -1.53652952	    -19.08390747	      4.65431203	    112.91214212	     89.95437384	      0.00000000	      0.00000000	    -34.08063545	     29.08206235	    -11.15409102	     80.79387115	     89.95437384	      0.00000000	      0.00000000
      0.07000000	     -9.56529919	      1.15875314	     -5.42238791	     -1.42343544	      0.85915579	      0.21950710	     -0.95645208	      0.25646166	     -5.88681695	    -34.97852788	     -0.61049048	     -5.48994585	      0.04426376	     -0.77134850	     43.01919990	     -0.73959617	      1.43028699	    -59.56132866	     -1.03954129	      2.96354625	      8.25829503	    -17.15886778	     -1.92827840	      0.40866537	      9.63834113	     -1.59706235	    -18.43867228	      4.57556678	    115.78967546	     89.95437384	      0.00000000	      0.00000000	    -36.72777997	     30.73105191	    -11.09959725	     82.75094569	     89.95437384	      0.00000000	      0.00000000
      0.08000000	     -9.46566745	      1.97810118	     -5.10681822	     -1.38871693	      0.86513990	      0.22012054	     -4.01472890	     -1.06658870	     -6.75376385	    -31.74668538	     -0.55408419	    -11.90846856	      0.22975993	      0.93566155	     43.01067266	     -1.86680844	      1.78827483	    -53.74197970	     -0.93797449	      1.19260825	      8.90671551	    -16.00102933	     -1.41456281	     -0.66773963	      9.94506822	     -1.89650064	    -17.86758622	      4.62452552	    118.38813968	     89.95437384	      0.00000000	      0.00000000	    -39.32854504	     32.08388544	    -10.81431721	     84.65490765	     89.95437384	      0.00000000	      0.00000000
      0.09000000	     -9.99211083	      2.76096609	     -4.98532292	     -1.35437085	      0.86996121	      0.22097673	     -6.02448305	     -2.14013161	     -6.87308397	    -28.68017600	     -0.50056350	    -19.30949362	      0.47115409	      2.53735327	     43.35017987	     -2.72503659	      2.28935422	    -47.64798099	     -0.83161415	     -1.33796204	      9.34811835	    -14.91760697	     -0.20434490	     -1.65790653	     10.33766440	     -2.38954441	    -17.29085349	      4.85378394	    120.56807960	     89.95437384	      0.00000000	      0.00000000	    -41.88003206	     33.12299657	    -10.26119195	     86.35728639	     89.95437384	      0.00000000	      0.00000000
      0.10000000	     -9.14252447	      3.35325476	     -4.63093153	     -1.31843771	      0.87611898	      0.22165344	     -9.79613035	     -3.09577412	     -7.89387867	    -24.86961933	     -0.43405674	    -28.33090336	     -0.61364813	      6.13836423	     41.58517054	     -3.82471616	      2.43474290	    -41.18850642	     -0.71887505	     -3.42187155	     10.44805621	    -12.69283342	     -0.48825911	     -2.58976872	     10.28066646	     -2.72740704	    -16.97595764	      5.47125771	    122.21688094	     89.95437384	      0.00000000	      0.00000000	    -44.12753692	     34.07502942	     -9.64370353	     88.17820638	     89.95437384	      0.00000000	      0.00000000
      0.11000000	     -9.31688526	      3.48471143	     -4.36999060	     -1.28387806	      0.88041960	      0.22261117	    -11.71562346	     -3.21724522	     -7.05745266	    -22.59080844	     -0.39428399	    -32.45858054	      0.19010211	     20.85652099	     41.21525534	     -4.17049268	      2.73250329	    -35.73732617	     -0.62373401	     -4.13796351	      8.00941413	      7.04063030	      0.22946417	     -2.92904636	     10.32166162	     -3.26453659	    -16.84509739	      6.12446879	    123.34426702	     89.95437384	      0.00000000	      0.00000000	    -45.92877355	     34.71148978	     -9.18373424	     89.42077536	     89.95437384	      0.00000000	      0.00000000
      0.12000000	     -9.43062193	      3.53971610	     -4.14216577	     -1.24954775	      0.88349074	      0.22356356	    -13.17688994	     -3.21017964	     -5.84200642	    -21.36298529	     -0.37285443	    -36.05196734	     -0.60097470	     21.57081123	     40.55155094	     -4.36973029	      3.40379860	    -30.37494820	     -0.53014286	     -6.59360607	      7.95050557	      8.20151809	      0.85882531	     -3.20421113	     10.28186446	     -3.82636309	    -16.87358354	      6.82708710	    123.98563618	     89.95437384	      0.00000000	      0.00000000	    -47.44441293	     35.26326036	     -8.56763268	     90.67939451	     89.95437384	      0.00000000	      0.00000000
      0.13000000	     -9.64965669	      3.19321282	     -3.76086795	     -1.21589483	      0.88523318	      0.22437735	    -13.72798521	     -2.54881505	     -4.20532373	    -21.75590016	     -0.37971209	    -37.06420459	     -2.73995932	     22.41967829	     40.17472028	     -4.20575577	      4.43774602	    -26.19258572	     -0.45714686	     -7.42363138	      7.02240628	     10.71908983	      1.48887667	     -3.05006105	      9.94313517	     -4.32199831	    -17.18901339	      7.78926851	    124.12057205	     89.95437384	      0.00000000	      0.00000000	    -48.45911381	     35.65764530	     -8.11557901	     91.66035446	     89.95437384	      0.00000000	      0.00000000
      0.14000000	     -9.95444736	      3.04334779	     -3.34319977	     -1.18311140	      0.88548804	      0.22484328	    -13.26256760	     -2.09650182	     -3.14129971	    -23.98022241	     -0.41853384	    -36.72475272	     -5.41197208	     22.74876771	     40.16867066	     -4.10436492	      6.73442289	    -23.37977410	     -0.40805404	     -7.88303195	      5.37968709	     11.89409061	      2.11004602	     -3.10771288	      9.37377227	     -4.65297163	    -17.60993959	      8.84467545	    123.67977247	     89.95437384	      0.00000000	      0.00000000	    -48.95701387	     35.92473409	     -7.83202406	     92.34107147	     89.95437384	      0.00000000	      0.00000000
      0.15000000	    -10.24758788	      2.78050081	     -2.78104094	     -1.15112553	      0.88472347	      0.22493605	    -12.22198524	     -1.44671697	     -2.30906785	    -27.39390902	     -0.47811391	    -35.08884824	     -8.49548822	     22.72384778	     40.31531501	     -3.99548229	      9.16531712	    -21.93551652	     -0.38284699	     -8.05535977	      3.07857575	     12.48730027	      2.55953323	     -3.07090060	      8.63960000	     -5.06708418	    -18.16944825	      9.70170544	    122.71130454	     89.95437384	      0.00000000	      0.00000000	    -48.58773832	     36.17942451	     -7.92831701	     92.65549301	     89.95437384	      0.00000000	      0.00000000
      0.16000000	    -10.23863447	      2.67706185	     -2.07968277	     -1.11959905	      0.88355802	      0.22440743	    -11.01303396	     -1.14620154	     -2.33055535	    -31.59773570	     -0.55148452	    -32.76984427	    -10.78695310	     22.17462340	     40.10980581	     -4.27419479	     11.01310697	    -21.57866534	     -0.37661876	     -8.46592475	      1.98955789	     12.32564983	      2.53634058	     -3.17839827	      7.64839306	     -5.51634013	    -18.77333286	     10.49446181	    121.25429435	     89.95437384	      0.00000000	      0.00000000	    -47.31498026	     36.45304470	     -8.59973980	     92.49096522	     89.95437384	      0.00000000	      0.00000000
